<svg class="animated" id="freepik_stories-desktop-computer" xmlns="http://www.w3.org/2000/svg" viewBox="0 0 750 500" version="1.1" xmlns:xlink="http://www.w3.org/1999/xlink" xmlns:svgjs="http://svgjs.com/svgjs"><style>svg#freepik_stories-desktop-computer:not(.animated) .animable {opacity: 0;}svg#freepik_stories-desktop-computer.animated #freepik--Keyboard--inject-49 {animation: 3s Infinite  linear floating;animation-delay: 0s;}svg#freepik_stories-desktop-computer.animated #freepik--Mouse--inject-49 {animation: 2.6s 1 forwards cubic-bezier(.36,-0.01,.5,1.38) slideLeft,1.5s Infinite  linear shake;animation-delay: 0s,2.6s;}            @keyframes floating {                0% {                    opacity: 1;                    transform: translateY(0px);                }                50% {                    transform: translateY(-10px);                }                100% {                    opacity: 1;                    transform: translateY(0px);                }            }                    @keyframes slideLeft {                0% {                    opacity: 0;                    transform: translateX(-30px);                }                100% {                    opacity: 1;                    transform: translateX(0);                }            }                    @keyframes shake {                10%, 90% {                    transform: translate3d(-1px, 0, 0);                  }                  20%, 80% {                    transform: translate3d(2px, 0, 0);                  }                  30%, 50%, 70% {                    transform: translate3d(-4px, 0, 0);                  }                  40%, 60% {                    transform: translate3d(4px, 0, 0);                  }            }        </style><g id="freepik--background-complete--inject-49" class="animable" style="transform-origin: 375.108px 188.45px;"><rect x="632.484" y="103.941" width="42.284" height="17.558" style="fill: rgb(245, 245, 245); transform-origin: 653.626px 112.72px;" id="elptk8pyrxinr" class="animable"></rect><g id="el9rcl8lcln9k" class="animable" style="transform-origin: 576.778px 116.662px;"><rect x="534.209" y="46.303" width="109.678" height="140.719" style="fill: rgb(230, 230, 230); transform-origin: 589.048px 116.662px;" id="elkau15p1g33" class="animable"></rect><rect x="509.67" y="46.303" width="128.835" height="140.719" style="fill: rgb(240, 240, 240); transform-origin: 574.087px 116.662px;" id="elkzj9u5fe5y" class="animable"></rect><rect x="521.549" y="58.802" width="104.518" height="115.721" style="fill: rgb(255, 255, 255); transform-origin: 573.808px 116.662px;" id="elhf3eqojpw3o" class="animable"></rect><rect x="555.881" y="95.777" width="37.728" height="41.772" style="fill: rgb(240, 240, 240); transform-origin: 574.745px 116.663px;" id="elseo5hupgwuq" class="animable"></rect></g><g id="el2c97a9c5jtw" class="animable" style="transform-origin: 375.108px 188.45px;"><g id="elbm6brkh09g8" class="animable" style="transform-origin: 375.108px 174.099px;"><g id="eln9nrm1nag2b" class="animable" style="transform-origin: 375.108px 163.873px;"><g id="eludp9qdhcugd" class="animable" style="transform-origin: 479.254px 163.873px;"><path d="M673.842,301.372h-180.746c-3.232,0-5.862-2.63-5.862-5.862V32.236c0-3.232,2.63-5.862,5.862-5.862h180.746c3.232,0,5.862,2.629,5.862,5.862V295.51c0,3.233-2.63,5.862-5.862,5.862ZM493.096,26.624c-3.095,0-5.612,2.518-5.612,5.612V295.51c0,3.095,2.518,5.612,5.612,5.612h180.746c3.095,0,5.612-2.518,5.612-5.612V32.236c0-3.094-2.518-5.612-5.612-5.612h-180.746Z" style="fill: rgb(224, 224, 224); transform-origin: 583.469px 163.873px;" id="elbdhqswr04db" class="animable"></path><path d="M465.414,301.372h-180.747c-3.232,0-5.862-2.63-5.862-5.862V32.236c0-3.232,2.629-5.862,5.862-5.862h180.747c3.232,0,5.862,2.629,5.862,5.862V295.51c0,3.233-2.63,5.862-5.862,5.862ZM284.668,26.624c-3.094,0-5.612,2.518-5.612,5.612V295.51c0,3.095,2.518,5.612,5.612,5.612h180.747c3.095,0,5.612-2.518,5.612-5.612V32.236c0-3.094-2.518-5.612-5.612-5.612h-180.747Z" style="fill: rgb(224, 224, 224); transform-origin: 375.04px 163.873px;" id="el3yyzwhxcepv" class="animable"></path></g><path d="M257.12,301.372H76.374c-3.232,0-5.862-2.63-5.862-5.862V32.236c0-3.232,2.629-5.862,5.862-5.862h180.746c3.232,0,5.862,2.629,5.862,5.862V295.51c0,3.233-2.63,5.862-5.862,5.862ZM76.374,26.624c-3.094,0-5.612,2.518-5.612,5.612V295.51c0,3.095,2.518,5.612,5.612,5.612h180.746c3.095,0,5.612-2.518,5.612-5.612V32.236c0-3.094-2.517-5.612-5.612-5.612H76.374Z" style="fill: rgb(224, 224, 224); transform-origin: 166.747px 163.873px;" id="elah5735sb019" class="animable"></path></g><rect x=".108" y="321.703" width="750" height=".12" style="fill: rgb(224, 224, 224); transform-origin: 375.108px 321.763px;" id="elynwp88cwb1" class="animable"></rect></g><g id="elg0md82a6cqj" class="animable" style="transform-origin: 375px 341.634px;"><rect x="653.626" y="345.54" width="55.729" height=".421" style="fill: rgb(235, 235, 235); transform-origin: 681.49px 345.751px;" id="el6zalgt22z3o" class="animable"></rect><rect x="495.044" y="350.105" width="14.627" height=".421" style="fill: rgb(235, 235, 235); transform-origin: 502.357px 350.316px;" id="elloy7woo018q" class="animable"></rect><rect x="40.645" y="332.742" width="72.675" height=".421" style="fill: rgb(235, 235, 235); transform-origin: 76.9825px 332.953px;" id="el1p9yp8svzv3" class="animable"></rect><rect x="128.299" y="332.742" width="10.655" height=".421" style="fill: rgb(235, 235, 235); transform-origin: 133.626px 332.953px;" id="eldfe45816beu" class="animable"></rect><rect x="173.586" y="339.846" width="157.613" height=".421" style="fill: rgb(235, 235, 235); transform-origin: 252.393px 340.057px;" id="el6virvxik85r" class="animable"></rect></g></g><g id="el77yzoifj04o" class="animable" style="transform-origin: 70.404px 222.524px;"><rect x="36.813" y="213.843" width="42.284" height="17.558" style="fill: rgb(224, 224, 224); transform-origin: 57.955px 222.622px;" id="elge1pdr7t1d" class="animable"></rect><rect x="60.311" y="196.417" width="42.284" height="17.558" style="fill: rgb(230, 230, 230); transform-origin: 81.453px 205.196px;" id="el94m6r4hrx5c" class="animable"></rect><rect x="61.711" y="231.072" width="42.284" height="17.558" style="fill: rgb(245, 245, 245); transform-origin: 82.853px 239.851px;" id="eleeorn8194d" class="animable"></rect></g><g id="elytjwbeo8uz" class="animable" style="transform-origin: 373.38px 75.0805px;"><rect x="339.789" y="57.687" width="42.284" height="17.558" style="fill: rgb(224, 224, 224); transform-origin: 360.931px 66.466px;" id="elze0vyli5jvg" class="animable"></rect><rect x="364.687" y="74.916" width="42.284" height="17.558" style="fill: rgb(245, 245, 245); transform-origin: 385.829px 83.695px;" id="elbpyr2my2qd" class="animable"></rect></g><g id="elhmlddc5fr5l" class="animable" style="transform-origin: 220.168px 276.611px;"><rect x="186.577" y="259.217" width="42.284" height="17.558" style="fill: rgb(224, 224, 224); transform-origin: 207.719px 267.996px;" id="elgexvgrzhpio" class="animable"></rect><rect x="211.476" y="276.446" width="42.284" height="17.558" style="fill: rgb(245, 245, 245); transform-origin: 232.618px 285.225px;" id="elchbkndkn67" class="animable"></rect></g><g id="elpsdgy9wrht" class="animable" style="transform-origin: 684.555px 218.635px;"><rect x="650.963" y="201.242" width="42.284" height="17.558" style="fill: rgb(224, 224, 224); transform-origin: 672.105px 210.021px;" id="el87hq3he74c9" class="animable"></rect><rect x="675.862" y="218.471" width="42.284" height="17.558" style="fill: rgb(245, 245, 245); transform-origin: 697.004px 227.25px;" id="elmtd9nk6ybjq" class="animable"></rect></g><rect x="145.605" y="67" width="42.284" height="17.558" style="fill: rgb(245, 245, 245); transform-origin: 166.747px 75.779px;" id="el4p2cveletr" class="animable"></rect><rect x="544.028" y="222.524" width="42.284" height="17.558" style="fill: rgb(245, 245, 245); transform-origin: 565.17px 231.303px;" id="el0ea1dfdxncgb" class="animable"></rect></g><g id="freepik--Shadows--inject-49" class="animable" style="transform-origin: 378.85px 368.904px;"><path d="M571.745,376.564c0,6.046-76.931,10.947-171.83,10.947s-171.83-4.901-171.83-10.947,76.931-10.947,171.83-10.947,171.83,4.901,171.83,10.947Z" style="fill: rgb(245, 245, 245); transform-origin: 399.915px 376.564px;" id="eljlsx9n1y6ad" class="animable"></path><path d="M208.17,376.564c0,6.046-40.352,10.947-90.128,10.947s-90.128-4.901-90.128-10.947,40.352-10.947,90.128-10.947,90.128,4.901,90.128,10.947Z" style="fill: rgb(245, 245, 245); transform-origin: 118.042px 376.564px;" id="el4gtmjx23rqr" class="animable"></path><path d="M729.787,361.245c0,6.046-31.95,10.947-71.362,10.947s-71.362-4.901-71.362-10.947,31.95-10.947,71.362-10.947,71.362,4.901,71.362,10.947Z" style="fill: rgb(245, 245, 245); transform-origin: 658.425px 361.245px;" id="ellx6is3hbgt" class="animable"></path></g><g id="freepik--Table--inject-49" class="animable" style="transform-origin: 378.361px 345.96px;"><path d="M723.798,346.335H32.925c-.207,0-.375-.168-.375-.375s.168-.375,.375-.375H723.798c.207,0,.375,.168,.375,.375s-.168,.375-.375,.375Z" style="fill: rgb(38, 50, 56); transform-origin: 378.361px 345.96px;" id="el6lw0v2ynof3" class="animable"></path></g><g id="freepik--Plant--inject-49" class="animable" style="transform-origin: 636.054px 291.56px;"><g id="elv3znlpq6cmq" class="animable" style="transform-origin: 636.054px 291.56px;"><g id="elj9t3nlb830s" class="animable" style="transform-origin: 609.461px 233.274px;"><path d="M614.117,234.121c1.09-3.276,1.346-6.825,.739-10.223-2.173,2.704-3.64,5.97-4.219,9.39-.358-2.094-.723-4.207-1.527-6.173-.805-1.966-2.098-3.8-3.936-4.865-1.107,4.533-.543,9.455,1.561,13.621-1.922-3.298-5.138-5.819-8.799-6.896,.701,4.984,4.489,9.4,9.309,10.85l3.426-.438c2.789-.494,5.394-1.969,7.253-4.105,1.859-2.137,2.96-4.92,3.064-7.751-2.891,1.427-5.325,3.761-6.87,6.59Z" style="fill: rgb(253, 187, 181); transform-origin: 609.462px 231.038px;" id="elweqizp7wg1d" class="animable"></path><path d="M615.221,237.24c1.348-4.052,1.665-8.443,.914-12.647-2.688,3.345-4.504,7.386-5.22,11.617-.443-2.59-.894-5.204-1.889-7.636-.996-2.432-2.596-4.7-4.87-6.018-1.37,5.608-.672,11.697,1.931,16.85-2.377-4.08-6.356-7.198-10.886-8.531,.867,6.166,5.554,11.629,11.516,13.423l4.239-.542c3.45-.612,6.673-2.436,8.973-5.079,2.3-2.643,3.661-6.087,3.791-9.588-3.576,1.765-6.587,4.653-8.499,8.152Z" style="fill: rgb(233, 122, 117); transform-origin: 609.461px 233.427px;" id="elvgnwl2j30xo" class="animable"></path></g><g id="eloiwuao5wqk" class="animable" style="transform-origin: 672.611px 255.411px;"><path d="M674.88,257.984c1.996-1.402,3.473-3.274,4.254-5.39-2.593,.672-4.865,1.925-6.535,3.602,.493-1.298,.989-2.61,1.104-4.007s-.18-2.908-1.157-4.199c-2.465,2.093-3.83,5.039-3.779,8.152-.23-2.562-1.703-5.186-4.029-7.18-1.287,3.032-.076,6.927,2.974,9.568l2.701,1.062c2.248,.788,4.716,.963,6.87,.486,2.154-.477,3.98-1.602,5.083-3.132-2.662-.31-5.314,.058-7.487,1.038Z" style="fill: rgb(253, 187, 181); transform-origin: 673.298px 254.166px;" id="el8gjvflhuekg" class="animable"></path><path d="M674.568,260.135c2.469-1.735,4.296-4.05,5.263-6.668-3.207,.832-6.019,2.381-8.084,4.456,.61-1.606,1.223-3.228,1.366-4.957,.143-1.729-.222-3.597-1.432-5.195-3.049,2.59-4.739,6.234-4.675,10.085-.285-3.17-2.107-6.416-4.985-8.882-1.592,3.751-.094,8.569,3.68,11.836l3.342,1.314c2.782,.975,5.834,1.191,8.499,.601,2.665-.59,4.923-1.982,6.288-3.875-3.293-.384-6.574,.071-9.262,1.284Z" style="fill: rgb(233, 122, 117); transform-origin: 672.611px 255.411px;" id="elaizm5cmwksa" class="animable"></path></g><g id="elm50y7xdhzrm" class="animable" style="transform-origin: 638.662px 264.085px;"><path d="M657.581,243.187c-.157-6.358-.588-12.975-3.719-18.511-3.131-5.536-9.751-9.611-15.851-7.809-7.452,2.201-10.181,11.164-11.542,18.814-4.463,25.091-6.748,50.569-6.82,76.054l34.775-3.08c1.847-21.782,3.695-43.615,3.157-65.469Z" style="fill: rgb(144, 202, 249); transform-origin: 638.662px 264.085px;" id="eldpahlmljkhj" class="animable"></path><path d="M636.17,217.906c-2.224,7.456-3.373,15.275-4.235,22.994-2.548,23.292-2.636,46.76-4.223,70.121,.888-15.59,1.222-31.205,2.117-46.796,1.103-15.525,1.868-31.321,6.342-46.318h0Z" style="fill: rgb(38, 50, 56); transform-origin: 631.941px 264.464px;" id="elvu6hmlybyvq" class="animable"></path><path d="M642.232,216.728c-2.334,31.06-3.036,62.223-3.886,93.351,.537-31.133,1.243-62.316,3.886-93.351h0Z" style="fill: rgb(38, 50, 56); transform-origin: 640.289px 263.403px;" id="elfpvaxkndcr4" class="animable"></path><path d="M649.236,219.348c1.074,14.952,1.574,29.942,1.73,44.931,.003,14.975-.114,30.031-2.233,44.881,1.919-14.871,2.059-29.905,1.983-44.879-.081-14.987-.606-29.971-1.48-44.933h0Z" style="fill: rgb(38, 50, 56); transform-origin: 649.85px 264.254px;" id="elbhp1a5vbl3" class="animable"></path><g id="elqqrz0ocsi4f"><g style="opacity: 0.3; transform-origin: 638.662px 264.085px;" class="animable"><path d="M657.581,243.187c-.157-6.358-.588-12.975-3.719-18.511-3.131-5.536-9.751-9.611-15.851-7.809-7.452,2.201-10.181,11.164-11.542,18.814-4.463,25.091-6.748,50.569-6.82,76.054l34.775-3.08c1.847-21.782,3.695-43.615,3.157-65.469Z" id="elq2skbuc93x" class="animable" style="transform-origin: 638.662px 264.085px;"></path></g></g></g><g id="elgettircw9z7" class="animable" style="transform-origin: 611.563px 279.196px;"><path d="M626.202,260.01c-.75-6.901-2.496-14.863-8.756-17.862-6.399-3.065-14.371,1.201-17.861,7.378-3.49,6.178-3.671,13.616-3.765,20.711-.206,15.675-.412,31.35-.618,47.025l32.002-4.815c1.224-17.463,.888-35.034-1.002-52.437Z" style="fill: rgb(144, 202, 249); transform-origin: 611.563px 279.196px;" id="eliyfmsimeksk" class="animable"></path><path d="M606.692,243.121c-5.125,23.926-3.63,48.622-3.394,72.923-.553-24.282-2.034-49.06,3.394-72.923h0Z" style="fill: rgb(38, 50, 56); transform-origin: 604.691px 279.583px;" id="elx38a2ofqfmm" class="animable"></path><path d="M611.026,243.027c.242,23.802,.853,47.749,2.209,71.522-1.671-23.792-2.275-47.673-2.209-71.522h0Z" style="fill: rgb(38, 50, 56); transform-origin: 612.128px 278.788px;" id="el43xlbqndgim" class="animable"></path><path d="M617.446,242.148c3.925,23.435,6.379,47.32,5.09,71.093,.975-23.784-1.472-47.607-5.09-71.093h0Z" style="fill: rgb(38, 50, 56); transform-origin: 620.164px 277.694px;" id="elpxo8u64us3h" class="animable"></path></g><g id="eljro5avdqgdk" class="animable" style="transform-origin: 659.349px 287.961px;"><path d="M676.134,276.34c.653-5.414,.733-11.817-3.523-15.225-4.351-3.484-11.21-1.637-14.979,2.469-3.769,4.106-5.231,9.765-6.564,15.177-2.945,11.957-5.891,23.915-8.836,35.872l25.343,2.007c4.042-13.144,6.91-26.649,8.558-40.301Z" style="fill: rgb(144, 202, 249); transform-origin: 659.349px 287.961px;" id="elrggp24mkxv" class="animable"></path><path d="M664.21,259.947c-8.146,17.409-11.391,36.563-15.566,55.194,3.861-18.684,7.138-37.914,15.566-55.194h0Z" style="fill: rgb(38, 50, 56); transform-origin: 656.427px 287.544px;" id="elqmtoqb53fgp" class="animable"></path><path d="M667.543,260.646c-4.023,18.3-7.801,36.662-11.03,55.119,2.919-18.507,6.705-36.89,11.03-55.119h0Z" style="fill: rgb(38, 50, 56); transform-origin: 662.028px 288.205px;" id="ellyqb7ko56s" class="animable"></path><path d="M672.611,261.115c-1.131,18.631-3.502,37.351-8.749,55.303,4.943-18.034,7.307-36.691,8.749-55.303h0Z" style="fill: rgb(38, 50, 56); transform-origin: 668.237px 288.766px;" id="eluhf1is8xx9" class="animable"></path></g><path d="M588.466,306.681h92.791v14.892c0,24.898-20.214,45.111-45.111,45.111h-2.569c-24.898,0-45.111-20.214-45.111-45.111v-14.893h0Z" style="fill: rgb(38, 50, 56); transform-origin: 634.862px 336.682px;" id="el6buoc9j35f4" class="animable"></path><path d="M588.519,322.754h92.685c.322,0,.322-.5,0-.5h-92.685c-.322,0-.322,.5,0,.5h0Z" style="fill: rgb(144, 202, 249); transform-origin: 634.861px 322.504px;" id="eltbwjh26k7w" class="animable"></path></g></g><g id="freepik--Keyboard--inject-49" class="animable" style="transform-origin: 388.653px 417.359px;"><g id="elgyn0aj21sd4" class="animable" style="transform-origin: 388.653px 417.359px;"><path d="M229.847,448.58c-5.871-.012-10.25-4.658-9.064-9.616,3.511-14.677,10.279-41.27,12.52-50.052,.433-1.695,2.176-2.898,4.189-2.895l300.27,.503c2.602,.004,4.861,1.548,5.461,3.731l13.239,48.2c1.405,5.114-3.167,9.994-9.261,9.877-20.968-.404-63.166-1.247-75.8-1.731-17.037-.653-64.742,1.632-87.079,1.959-18.502,.27-120.121,.093-154.476,.024Z" style="fill: rgb(38, 50, 56); transform-origin: 388.653px 417.359px;" id="elp7erlwloa1" class="animable"></path><g id="elt0uba2kth9"><g style="opacity: 0.2; transform-origin: 498.588px 415.51px;" class="animable"><path d="M516.986,415.995l-.689-3.141c-.157-.716-.882-1.234-1.727-1.234h-8.232c-1.079,0-1.904,.831-1.736,1.75l.571,3.141c.134,.737,.871,1.281,1.736,1.281h8.349c1.102,0,1.932-.864,1.727-1.797Z" style="fill: rgb(255, 255, 255); transform-origin: 510.798px 414.706px;" id="elcipln8sq83" class="animable"></path><path d="M503.422,416.042l-.571-3.141c-.134-.737-.871-1.281-1.736-1.281h-7.142c-1.051,0-1.867,.79-1.746,1.69l.422,3.141c.103,.764,.853,1.341,1.746,1.341h7.292c1.079,0,1.904-.831,1.736-1.75Z" style="fill: rgb(255, 255, 255); transform-origin: 497.83px 414.706px;" id="elty78hmtxjcg" class="animable"></path><path d="M502.494,419.212h-7.503c-1.051,0-1.867,.79-1.746,1.69l.422,3.142c.103,.765,.853,1.341,1.746,1.341h7.653c1.079,0,1.904-.831,1.736-1.75l-.571-3.141c-.134-.737-.871-1.281-1.736-1.281Z" style="fill: rgb(255, 255, 255); transform-origin: 499.028px 422.299px;" id="el1scuz21z5s8" class="animable"></path><path d="M533.287,427.952c-.195-.675-.898-1.149-1.705-1.149h-11.576l-.628,.102-.022-.102h-13.368l-.595,.08-.015-.08h-9.368c-1.051,0-1.867,.79-1.746,1.69l.456,3.401c.104,.772,.867,1.351,1.768,1.341l35.985-.394c1.134-.012,1.957-.934,1.683-1.882l-.87-3.007Z" style="fill: rgb(255, 255, 255); transform-origin: 514.23px 430.019px;" id="elqqiq818jd4" class="animable"></path><path d="M493.375,410.201h6.931c1.079,0,1.903-.831,1.736-1.75l-.423-2.327c-.134-.737-.871-1.281-1.736-1.281h-6.82c-1.051,0-1.867,.79-1.746,1.69l.312,2.327c.103,.764,.853,1.341,1.746,1.341Z" style="fill: rgb(255, 255, 255); transform-origin: 496.684px 407.522px;" id="elk71ysy3pmrr" class="animable"></path><path d="M505.53,410.201h8.065c1.102,0,1.932-.864,1.727-1.797l-.51-2.327c-.157-.716-.882-1.234-1.727-1.234h-7.978c-1.079,0-1.903,.831-1.736,1.75l.423,2.327c.134,.737,.871,1.281,1.736,1.281Z" style="fill: rgb(255, 255, 255); transform-origin: 509.351px 407.522px;" id="elq17jgaba38" class="animable"></path><path d="M516.965,402.809h6.579c1.143,0,1.982-.926,1.705-1.882l-.418-1.445c-.195-.675-.898-1.149-1.705-1.149h-6.478c-1.102,0-1.932,.864-1.727,1.797l.317,1.445c.157,.716,.882,1.234,1.727,1.234Z" style="fill: rgb(255, 255, 255); transform-origin: 520.096px 400.571px;" id="ely7flz4ms7o" class="animable"></path><path d="M527.606,408.319l-.673-2.327c-.195-.675-.898-1.149-1.705-1.149h-6.891c-1.102,0-1.932,.864-1.727,1.797l.51,2.327c.157,.716,.882,1.234,1.727,1.234h7.054c1.143,0,1.982-.926,1.705-1.882Z" style="fill: rgb(255, 255, 255); transform-origin: 522.119px 407.522px;" id="elw2cq352v6ng" class="animable"></path><path d="M503.901,402.809h7.811c1.102,0,1.932-.864,1.727-1.797l-.317-1.445c-.157-.716-.882-1.234-1.727-1.234h-7.757c-1.079,0-1.904,.831-1.736,1.75l.262,1.445c.134,.737,.871,1.281,1.736,1.281Z" style="fill: rgb(255, 255, 255); transform-origin: 507.675px 400.571px;" id="elss7pmvcroeq" class="animable"></path><path d="M528.864,402.809h5.604c1.178,0,2.023-.98,1.683-1.953l-.505-1.444c-.224-.64-.907-1.079-1.683-1.079h-5.517c-1.143,0-1.982,.926-1.705,1.882l.418,1.445c.195,.675,.899,1.149,1.705,1.149Z" style="fill: rgb(255, 255, 255); transform-origin: 531.457px 400.571px;" id="el1m3dqu8ew2f" class="animable"></path><path d="M536.339,432.636l8.775,.067c1.169-.013,1.998-.987,1.661-1.952l-6.306-18.052c-.224-.64-.907-1.078-1.683-1.078h-6.277c-1.143,0-1.982,.926-1.705,1.882l5.536,19.134h0Z" style="fill: rgb(255, 255, 255); transform-origin: 538.801px 422.162px;" id="elxgnrioeia7c" class="animable"></path><path d="M500.413,401.058l-.263-1.445c-.134-.737-.871-1.281-1.736-1.281h-6.539c-1.051,0-1.867,.79-1.746,1.69l.194,1.445c.103,.764,.853,1.341,1.746,1.341h6.608c1.079,0,1.903-.831,1.736-1.75Z" style="fill: rgb(255, 255, 255); transform-origin: 495.276px 400.57px;" id="elx16woo2vew" class="animable"></path><path d="M453.187,409.038h6.931c1.079,0,1.903-.831,1.736-1.75l-.423-2.327c-.134-.737-.871-1.281-1.736-1.281h-6.82c-1.051,0-1.867,.79-1.746,1.69l.312,2.327c.103,.764,.853,1.341,1.746,1.341Z" style="fill: rgb(255, 255, 255); transform-origin: 456.496px 406.359px;" id="elm0jwm9v6d1" class="animable"></path><path d="M465.342,409.038h8.065c1.101,0,1.932-.864,1.727-1.797l-.51-2.327c-.157-.716-.882-1.234-1.727-1.234h-7.978c-1.079,0-1.903,.831-1.736,1.75l.423,2.327c.134,.737,.871,1.281,1.736,1.281Z" style="fill: rgb(255, 255, 255); transform-origin: 469.163px 406.359px;" id="elsis581qnkt" class="animable"></path><path d="M477.173,402.261h6.579c1.143,0,1.982-.926,1.705-1.882l-.418-1.444c-.195-.675-.899-1.149-1.705-1.149h-6.478c-1.102,0-1.932,.864-1.727,1.797l.317,1.444c.157,.716,.882,1.234,1.727,1.234Z" style="fill: rgb(255, 255, 255); transform-origin: 480.304px 400.024px;" id="elf2kc4p73m3p" class="animable"></path><path d="M487.419,407.155l-.673-2.327c-.195-.675-.898-1.149-1.705-1.149h-6.891c-1.102,0-1.932,.864-1.727,1.797l.51,2.327c.157,.716,.882,1.234,1.727,1.234h7.054c1.143,0,1.982-.926,1.705-1.882Z" style="fill: rgb(255, 255, 255); transform-origin: 481.932px 406.358px;" id="elamc3us46q3" class="animable"></path><path d="M464.11,402.261h7.811c1.102,0,1.932-.864,1.727-1.797l-.317-1.445c-.157-.716-.882-1.234-1.727-1.234h-7.757c-1.079,0-1.903,.831-1.736,1.75l.262,1.445c.134,.737,.871,1.281,1.736,1.281Z" style="fill: rgb(255, 255, 255); transform-origin: 467.884px 400.023px;" id="el97xigvke4lw" class="animable"></path><path d="M460.622,400.511l-.263-1.444c-.134-.737-.871-1.281-1.736-1.281h-6.539c-1.051,0-1.867,.79-1.746,1.69l.194,1.444c.103,.764,.853,1.341,1.746,1.341h6.608c1.079,0,1.904-.831,1.736-1.75Z" style="fill: rgb(255, 255, 255); transform-origin: 455.485px 400.023px;" id="elvhcyty1qf6p" class="animable"></path><path d="M531.999,423.502l-.909-3.141c-.195-.675-.898-1.149-1.705-1.149h-7.898c-1.102,0-1.932,.864-1.727,1.797l.689,3.141c.157,.716,.882,1.234,1.727,1.234h8.118c1.143,0,1.982-.926,1.705-1.882Z" style="fill: rgb(255, 255, 255); transform-origin: 525.891px 422.298px;" id="elklwsokcr6ar" class="animable"></path><path d="M529.803,415.91l-.909-3.141c-.195-.675-.898-1.149-1.705-1.149h-7.366c-1.101,0-1.932,.864-1.727,1.797l.689,3.141c.157,.716,.882,1.234,1.727,1.234h7.586c1.143,0,1.982-.926,1.705-1.882Z" style="fill: rgb(255, 255, 255); transform-origin: 523.96px 414.706px;" id="elxu4yj9590xb" class="animable"></path><path d="M538.915,408.248l-.889-2.49c-.194-.544-.777-.915-1.437-.915h-6.041c-1.143,0-1.982,.926-1.705,1.882l.673,2.327c.195,.675,.898,1.149,1.705,1.149h6.01c1.178,0,2.023-.98,1.683-1.953Z" style="fill: rgb(255, 255, 255); transform-origin: 533.89px 407.522px;" id="el1rovdv48yqm" class="animable"></path><path d="M518.651,423.587l-.689-3.142c-.157-.716-.882-1.234-1.727-1.234h-8.516c-1.079,0-1.903,.831-1.736,1.75l.571,3.141c.134,.737,.871,1.281,1.736,1.281h8.634c1.102,0,1.932-.864,1.727-1.797Z" style="fill: rgb(255, 255, 255); transform-origin: 512.322px 422.297px;" id="el7o5rtv8xwj9" class="animable"></path><path d="M476.572,423.75l-.689-3.141c-.157-.716-.882-1.234-1.727-1.234h-8.232c-1.079,0-1.904,.831-1.736,1.75l.571,3.141c.134,.737,.871,1.281,1.736,1.281h8.349c1.101,0,1.932-.864,1.727-1.797Z" style="fill: rgb(255, 255, 255); transform-origin: 470.384px 422.461px;" id="elx26y3oegqu" class="animable"></path><path d="M462.08,426.966h-7.503c-1.051,0-1.867,.79-1.746,1.69l.422,3.141c.103,.764,.853,1.341,1.746,1.341h7.653c1.079,0,1.903-.831,1.736-1.75l-.571-3.141c-.134-.737-.871-1.281-1.736-1.281Z" style="fill: rgb(255, 255, 255); transform-origin: 458.614px 430.052px;" id="el97pn712ry2n" class="animable"></path><path d="M491.585,431.256l-.909-3.141c-.195-.675-.898-1.149-1.705-1.149h-7.898c-1.102,0-1.932,.864-1.727,1.797l.689,3.141c.157,.716,.882,1.234,1.727,1.234h8.118c1.143,0,1.982-.926,1.705-1.882Z" style="fill: rgb(255, 255, 255); transform-origin: 485.476px 430.052px;" id="el8d6bjtx95zo" class="animable"></path><path d="M478.237,431.342l-.689-3.142c-.157-.716-.882-1.234-1.727-1.234h-8.516c-1.079,0-1.903,.831-1.736,1.75l.571,3.141c.134,.737,.871,1.281,1.736,1.281h8.634c1.102,0,1.932-.864,1.727-1.797Z" style="fill: rgb(255, 255, 255); transform-origin: 471.908px 430.052px;" id="elgp17cuzf4dv" class="animable"></path></g></g><g id="elytgod9gzyzg"><g style="opacity: 0.2; transform-origin: 343.706px 416.086px;" class="animable"><path d="M285.008,422.445l.254-3.532c.055-.76-.645-1.402-1.528-1.402h-9.038c-.786,0-1.445,.514-1.523,1.188l-.412,3.532c-.091,.777,.617,1.452,1.523,1.452h9.196c.809,0,1.478-.542,1.528-1.239Z" style="fill: rgb(255, 255, 255); transform-origin: 279.009px 420.597px;" id="elnv5lvtsjhus" class="animable"></path><path d="M289.288,408.5h7.193c.835,0,1.517-.578,1.531-1.298l.053-2.717c.014-.738-.675-1.343-1.531-1.343h-7.051c-.809,0-1.478,.542-1.528,1.239l-.195,2.717c-.055,.76,.645,1.402,1.528,1.402Z" style="fill: rgb(255, 255, 255); transform-origin: 292.911px 405.821px;" id="eloz21kb27tcc" class="animable"></path><path d="M276.055,408.5h8.516c.809,0,1.478-.543,1.528-1.239l.195-2.717c.055-.76-.645-1.402-1.528-1.402h-8.395c-.786,0-1.445,.514-1.523,1.188l-.317,2.717c-.091,.778,.617,1.452,1.523,1.452Z" style="fill: rgb(255, 255, 255); transform-origin: 280.41px 405.821px;" id="el44i02k1emdh" class="animable"></path><path d="M300.47,408.5h10.748c.454,0,.823-.318,.823-.71v-3.938c0-.392-.368-.71-.823-.71h-10.67c-.449,0-.815,.31-.823,.698l-.077,3.938c-.008,.397,.363,.722,.823,.722Z" style="fill: rgb(255, 255, 255); transform-origin: 305.844px 405.821px;" id="elbybi7ec44ao" class="animable"></path><path d="M342.594,408.5h11.21c.454,0,.823-.318,.823-.71v-3.938c0-.392-.368-.71-.823-.71h-11.21c-.454,0-.823,.318-.823,.71v3.938c0,.392,.368,.71,.823,.71Z" style="fill: rgb(255, 255, 255); transform-origin: 348.199px 405.821px;" id="elaxcxkcc5w6r" class="animable"></path><path d="M329.123,408.5h10.179c.454,0,.823-.318,.823-.71v-3.938c0-.392-.368-.71-.823-.71h-10.179c-.454,0-.823,.318-.823,.71v3.938c0,.392,.368,.71,.823,.71Z" style="fill: rgb(255, 255, 255); transform-origin: 334.212px 405.821px;" id="elq9d4mkdtx8q" class="animable"></path><path d="M357.096,408.5h11.407c.449,0,.815-.311,.823-.698l.076-3.938c.008-.396-.363-.721-.823-.721h-11.483c-.454,0-.823,.318-.823,.71v3.938c0,.392,.368,.71,.823,.71Z" style="fill: rgb(255, 255, 255); transform-origin: 362.838px 405.822px;" id="elufmwcxrk6lg" class="animable"></path><path d="M314.509,408.5h11.323c.455,0,.823-.318,.823-.71v-3.938c0-.392-.368-.71-.823-.71h-11.323c-.454,0-.823,.318-.823,.71v3.938c0,.392,.368,.71,.823,.71Z" style="fill: rgb(255, 255, 255); transform-origin: 320.171px 405.821px;" id="elkcpb7a6ce8" class="animable"></path><path d="M395.716,417.725h-10.134c-.725,0-1.31,.513-1.298,1.138l.077,3.934c.012,.611,.589,1.101,1.298,1.101h10.221c.735,0,1.324-.526,1.297-1.159l-.164-3.934c-.025-.602-.598-1.079-1.297-1.079Z" style="fill: rgb(255, 255, 255); transform-origin: 390.731px 420.812px;" id="elg6zc09ocum" class="animable"></path><path d="M411.631,417.725h-11.671c-.735,0-1.324,.526-1.297,1.159l.164,3.934c.025,.602,.598,1.079,1.297,1.079h11.857c.756,0,1.352-.555,1.294-1.205l-.35-3.934c-.052-.583-.616-1.034-1.294-1.034Z" style="fill: rgb(255, 255, 255); transform-origin: 405.971px 420.811px;" id="el2wcw4wl244o" class="animable"></path><path d="M296.253,417.511h-7.802c-.809,0-1.478,.543-1.528,1.239l-.254,3.532c-.055,.76,.645,1.402,1.528,1.402h7.987c.836,0,1.517-.578,1.531-1.298l.069-3.532c.014-.738-.675-1.343-1.531-1.343Z" style="fill: rgb(255, 255, 255); transform-origin: 292.225px 420.598px;" id="el532oghg9quf" class="animable"></path><path d="M398.347,411.079l.164,3.934c.025,.602,.598,1.079,1.297,1.079h11.499c.756,0,1.352-.555,1.294-1.205l-.35-3.934c-.052-.583-.616-1.034-1.294-1.034h-11.313c-.735,0-1.324,.526-1.297,1.159Z" style="fill: rgb(255, 255, 255); transform-origin: 405.475px 413.006px;" id="eld135rhcplu5" class="animable"></path><g id="elg0pst6efjb" class="animable" style="transform-origin: 369.497px 420.598px;"><path d="M369.126,418.233c.008-.396-.363-.721-.823-.721h-11.207c-.454,0-.823,.318-.823,.71v4.753c0,.392,.368,.71,.823,.71h12.159c-.138-.261-.222-.562-.219-.752l.09-4.699Z" style="fill: rgb(255, 255, 255); transform-origin: 362.764px 420.598px;" id="elmoiv1n66529" class="animable"></path><path d="M382.628,418.209c-.007-.387-.374-.698-.823-.698h-10.21c-.449,0-.815,.311-.823,.698l-.091,4.746c-.004,.186-.09,.475-.226,.729h11.443c.46,0,.83-.325,.823-.721l-.092-4.753Z" style="fill: rgb(255, 255, 255); transform-origin: 376.588px 420.598px;" id="elv4ioaz99efo" class="animable"></path></g><path d="M339.302,417.511h-10.179c-.454,0-.823,.318-.823,.71v4.723c0,.392-.368,.71-.823,.71h0c-.454,0-.823-.318-.823-.71v-4.723c0-.392-.368-.71-.823-.71h-11.323c-.454,0-.823,.318-.823,.71v4.723c0,.392-.368,.71-.823,.71h0c-.454,0-.823-.318-.823-.71v-4.723c0-.392-.368-.71-.823-.71h-10.952c-.449,0-.815,.31-.823,.698l-.093,4.753c-.008,.397,.363,.722,.823,.722h39.13c.454,0,.823-.318,.823-.71v-4.753c0-.392-.368-.71-.823-.71Z" style="fill: rgb(255, 255, 255); transform-origin: 319.736px 420.597px;" id="el279acdvxy6kj" class="animable"></path><path d="M353.804,417.511h-11.21c-.454,0-.823,.318-.823,.71v4.753c0,.392,.368,.71,.823,.71h11.21c.454,0,.823-.318,.823-.71v-4.753c0-.392-.368-.71-.823-.71Z" style="fill: rgb(255, 255, 255); transform-origin: 348.199px 420.597px;" id="el7ule1z7rve2" class="animable"></path><path d="M284.279,409.92h-8.698c-.786,0-1.445,.514-1.523,1.188l-.412,3.532c-.091,.777,.617,1.452,1.523,1.452h8.856c.809,0,1.478-.542,1.528-1.239l.254-3.532c.055-.76-.645-1.402-1.528-1.402Z" style="fill: rgb(255, 255, 255); transform-origin: 279.724px 413.005px;" id="el57bsn852y7h" class="animable"></path><path d="M385.362,408.714h9.886c.735,0,1.324-.526,1.297-1.159l-.13-3.119c-.025-.602-.598-1.079-1.297-1.079h-9.817c-.725,0-1.31,.513-1.298,1.138l.061,3.119c.012,.611,.589,1.1,1.298,1.1Z" style="fill: rgb(255, 255, 255); transform-origin: 390.274px 406.035px;" id="elqosbqv2ysq" class="animable"></path><path d="M372.278,408.5h8.841c.725,0,1.31-.513,1.298-1.138l-.061-3.119c-.012-.611-.589-1.101-1.298-1.101h-8.72c-.709,0-1.286,.49-1.298,1.101l-.06,3.119c-.012,.625,.573,1.138,1.298,1.138Z" style="fill: rgb(255, 255, 255); transform-origin: 376.699px 405.821px;" id="el4e9jg2gp1m3" class="animable"></path><path d="M311.217,409.92h-10.803c-.449,0-.815,.31-.823,.698l-.093,4.753c-.008,.397,.363,.722,.823,.722h10.896c.454,0,.823-.318,.823-.71v-4.753c0-.392-.368-.71-.823-.71Z" style="fill: rgb(255, 255, 255); transform-origin: 305.769px 413.007px;" id="elnxjexyf50w" class="animable"></path><path d="M288.742,416.092h7.59c.835,0,1.517-.578,1.531-1.298l.069-3.532c.014-.738-.675-1.343-1.531-1.343h-7.405c-.809,0-1.478,.543-1.528,1.239l-.254,3.532c-.055,.76,.645,1.402,1.528,1.402Z" style="fill: rgb(255, 255, 255); transform-origin: 292.572px 413.006px;" id="elezed12fmxc" class="animable"></path><path d="M428.049,401.724h16.632c.94,0,1.671-.705,1.565-1.511l-.23-1.751c-.09-.69-.77-1.21-1.575-1.206l-16.653,.091c-.946,.005-1.674,.724-1.552,1.533l.25,1.66c.102,.677,.771,1.184,1.562,1.184Z" style="fill: rgb(255, 255, 255); transform-origin: 436.239px 399.49px;" id="elbo2dxqlruj" class="animable"></path><path d="M425.099,409.92h-9.888c-.756,0-1.352,.555-1.294,1.205l.35,3.934c.052,.583,.616,1.034,1.294,1.034h10.13c.783,0,1.388-.594,1.287-1.263l-.592-3.934c-.084-.558-.635-.975-1.287-.975Z" style="fill: rgb(255, 255, 255); transform-origin: 420.451px 413.007px;" id="elb7ojd6x8z6i" class="animable"></path><path d="M431.109,423.684h16.762c.775,0,1.377-.581,1.29-1.245l-.516-3.934c-.074-.566-.629-.994-1.29-.994h-16.838c-.783,0-1.388,.594-1.287,1.263l.592,3.934c.084,.558,.635,.975,1.287,.975Z" style="fill: rgb(255, 255, 255); transform-origin: 439.194px 420.598px;" id="ely17mppeg8dq" class="animable"></path><path d="M262.197,416.092h8.24c.786,0,1.445-.514,1.523-1.188l.412-3.532c.091-.777-.617-1.452-1.523-1.452h-8.079c-.764,0-1.411,.485-1.516,1.138l-.572,3.532c-.129,.794,.587,1.503,1.516,1.503Z" style="fill: rgb(255, 255, 255); transform-origin: 266.523px 413.007px;" id="elbpy7rhkdc0i" class="animable"></path><path d="M368.448,409.92h-11.353c-.454,0-.823,.318-.823,.71v4.753c0,.392,.368,.71,.823,.71h11.261c.449,0,.815-.311,.823-.698l.091-4.753c.008-.396-.363-.721-.823-.721Z" style="fill: rgb(255, 255, 255); transform-origin: 362.771px 413.007px;" id="elubar9ws2b5d" class="animable"></path><polygon points="382.467 409.92 370.931 409.92 370.813 416.092 382.587 416.092 382.467 409.92" style="fill: rgb(255, 255, 255); transform-origin: 376.7px 413.006px;" id="el8fsqtcivdbi" class="animable"></polygon><path d="M325.831,409.92h-11.323c-.454,0-.823,.318-.823,.71v4.753c0,.392,.368,.71,.823,.71h11.323c.455,0,.823-.318,.823-.71v-4.753c0-.392-.368-.71-.823-.71Z" style="fill: rgb(255, 255, 255); transform-origin: 320.169px 413.007px;" id="ellkvb28ldplp" class="animable"></path><path d="M395.4,410.133h-9.967c-.725,0-1.31,.513-1.298,1.138l.077,3.934c.012,.611,.589,1.101,1.298,1.101h10.053c.735,0,1.324-.526,1.297-1.16l-.164-3.934c-.025-.602-.598-1.079-1.297-1.079Z" style="fill: rgb(255, 255, 255); transform-origin: 390.498px 413.219px;" id="elxstlj2y34n" class="animable"></path><path d="M339.302,409.92h-10.179c-.454,0-.823,.318-.823,.71v4.753c0,.392,.368,.71,.823,.71h10.179c.454,0,.823-.318,.823-.71v-4.753c0-.392-.368-.71-.823-.71Z" style="fill: rgb(255, 255, 255); transform-origin: 334.213px 413.007px;" id="el53jljw3uw89" class="animable"></path><path d="M353.804,409.92h-11.21c-.454,0-.823,.318-.823,.71v4.753c0,.392,.368,.71,.823,.71h11.21c.454,0,.823-.318,.823-.71v-4.753c0-.392-.368-.71-.823-.71Z" style="fill: rgb(255, 255, 255); transform-origin: 348.199px 413.007px;" id="elj61v520qfpf" class="animable"></path><path d="M410.354,403.143h-10.992c-.735,0-1.324,.526-1.297,1.159l.13,3.119c.025,.602,.598,1.079,1.297,1.079h11.14c.756,0,1.352-.555,1.294-1.205l-.277-3.119c-.052-.583-.616-1.034-1.294-1.034Z" style="fill: rgb(255, 255, 255); transform-origin: 404.997px 405.821px;" id="eln3n98w7wji" class="animable"></path><path d="M381.953,425.103h-94.714c-.435,0-.794,.292-.821,.666l-.579,8.054c-.029,.411,.351,.757,.828,.753l95.436-.674c.457-.003,.824-.327,.816-.721l-.144-7.38c-.007-.387-.374-.698-.823-.698Z" style="fill: rgb(255, 255, 255); transform-origin: 334.378px 429.839px;" id="el15ahl23umru" class="animable"></path><path d="M396.031,425.317h-10.302c-.725,0-1.31,.513-1.298,1.138l.127,6.534c.012,.614,.596,1.105,1.308,1.1l10.444-.074c.731-.005,1.313-.53,1.287-1.159l-.269-6.46c-.025-.602-.598-1.079-1.297-1.079Z" style="fill: rgb(255, 255, 255); transform-origin: 391.014px 429.703px;" id="el0o000hct20mh" class="animable"></path><path d="M283.188,425.103h-9.378c-.786,0-1.445,.514-1.523,1.188l-.808,6.929c-.091,.782,.625,1.459,1.536,1.452l9.693-.068c.804-.006,1.466-.547,1.516-1.239l.493-6.86c.055-.76-.645-1.402-1.528-1.402Z" style="fill: rgb(255, 255, 255); transform-origin: 278.096px 429.887px;" id="el1ky11ln5e0r" class="animable"></path><path d="M258.96,414.955l.572-3.532c.129-.794-.587-1.503-1.516-1.503h-14.405c-.731,0-1.361,.446-1.502,1.065l-.808,3.532c-.187,.816,.538,1.576,1.502,1.576h14.641c.764,0,1.411-.485,1.516-1.138Z" style="fill: rgb(255, 255, 255); transform-origin: 250.409px 413.006px;" id="elgh6wzc5og0b" class="animable"></path><path d="M412.306,425.317h-12.03c-.735,0-1.324,.526-1.297,1.159l.267,6.43c.025,.606,.605,1.084,1.308,1.079l12.327-.087c.752-.005,1.341-.558,1.284-1.205l-.564-6.343c-.052-.583-.616-1.034-1.294-1.034Z" style="fill: rgb(255, 255, 255); transform-origin: 406.573px 429.651px;" id="elerso5rbiwe" class="animable"></path><path d="M269.79,433.518l.812-6.962c.091-.778-.617-1.452-1.523-1.452h-8.768c-.764,0-1.411,.485-1.516,1.138l-1.138,7.026c-.129,.798,.594,1.51,1.529,1.503l9.095-.064c.781-.006,1.433-.518,1.511-1.188Z" style="fill: rgb(255, 255, 255); transform-origin: 264.126px 429.938px;" id="elqfykmrw56x" class="animable"></path><path d="M269.964,417.511h-8.424c-.764,0-1.411,.485-1.516,1.138l-.572,3.532c-.129,.794,.586,1.503,1.516,1.503h8.584c.786,0,1.445-.513,1.523-1.188l.412-3.532c.091-.778-.617-1.452-1.523-1.452Z" style="fill: rgb(255, 255, 255); transform-origin: 265.466px 420.597px;" id="el2tw9w94e1lt" class="animable"></path><path d="M257.73,422.546l.572-3.532c.129-.794-.587-1.503-1.516-1.503h-14.912c-.731,0-1.361,.446-1.502,1.065l-.808,3.532c-.187,.816,.538,1.576,1.502,1.576h15.148c.764,0,1.411-.485,1.516-1.138Z" style="fill: rgb(255, 255, 255); transform-origin: 248.926px 420.597px;" id="elgun2bhanl5j" class="animable"></path><path d="M255.556,425.103h-15.419c-.731,0-1.361,.446-1.502,1.065l-1.641,7.172c-.188,.82,.545,1.582,1.515,1.576l15.916-.112c.759-.005,1.399-.489,1.504-1.138l1.144-7.06c.129-.794-.586-1.503-1.516-1.503Z" style="fill: rgb(255, 255, 255); transform-origin: 247.026px 430.01px;" id="elx5yk5ghhog" class="animable"></path><path d="M427.383,425.103h-10.823c-.756,0-1.352,.555-1.294,1.205l.561,6.313c.052,.587,.622,1.039,1.305,1.034l11.199-.079c.779-.005,1.377-.597,1.277-1.263l-.938-6.234c-.084-.558-.635-.975-1.287-.975Z" style="fill: rgb(255, 255, 255); transform-origin: 422.441px 429.379px;" id="eloypkpf4l1b" class="animable"></path><path d="M450.439,432.184l-.915-5.979c-.096-.631-.72-1.102-1.458-1.102h-16.406c-.783,0-1.388,.594-1.287,1.263l.933,6.204c.084,.561,.642,.98,1.298,.975l16.556-.117c.77-.006,1.366-.585,1.279-1.245Z" style="fill: rgb(255, 255, 255); transform-origin: 440.405px 429.324px;" id="el4xihyzhkj3o" class="animable"></path><path d="M261.288,400.586l.133-.821c.129-.797-.592-1.508-1.526-1.503l-13.644,.074c-.728,.004-1.352,.449-1.492,1.065l-.171,.747c-.187,.816,.538,1.576,1.502,1.576h13.682c.764,0,1.411-.485,1.516-1.138Z" style="fill: rgb(255, 255, 255); transform-origin: 252.997px 399.993px;" id="el5zcvc63hqa3" class="animable"></path><path d="M414.591,418.716l.35,3.934c.052,.583,.616,1.034,1.294,1.034h10.597c.783,0,1.388-.594,1.287-1.263l-.592-3.934c-.084-.558-.635-.975-1.287-.975h-10.355c-.756,0-1.352,.555-1.294,1.205Z" style="fill: rgb(255, 255, 255); transform-origin: 421.359px 420.598px;" id="elrvn1m0iaejt" class="animable"></path><path d="M429.967,416.092h16.909c.775,0,1.377-.581,1.29-1.245l-.516-3.934c-.074-.566-.629-.994-1.29-.994h-16.985c-.783,0-1.388,.594-1.287,1.263l.592,3.934c.084,.558,.635,.975,1.287,.975Z" style="fill: rgb(255, 255, 255); transform-origin: 438.126px 413.006px;" id="elknqv1xibfab" class="animable"></path><path d="M428.825,408.5h17.055c.775,0,1.377-.581,1.29-1.245l-.409-3.119c-.074-.566-.629-.994-1.29-.994h-17.116c-.783,0-1.388,.594-1.287,1.263l.469,3.119c.084,.558,.635,.975,1.287,.975Z" style="fill: rgb(255, 255, 255); transform-origin: 437.118px 405.821px;" id="ely4ii30lq5rg" class="animable"></path><path d="M314.509,401.724h11.323c.455,0,.823-.318,.823-.709v-2.402c0-.394-.372-.712-.828-.71l-11.323,.062c-.452,.003-.818,.319-.818,.71v2.341c0,.392,.368,.709,.823,.709Z" style="fill: rgb(255, 255, 255); transform-origin: 320.171px 399.814px;" id="elzwh8dko4q" class="animable"></path><path d="M357.096,401.724h11.537c.449,0,.815-.31,.823-.698l.051-2.636c.008-.398-.366-.724-.828-.721l-11.588,.063c-.452,.003-.818,.319-.818,.71v2.573c0,.392,.368,.709,.823,.709Z" style="fill: rgb(255, 255, 255); transform-origin: 362.89px 399.696px;" id="el2zhwcn1i8kg" class="animable"></path><path d="M371.925,401.724h9.545c.46,0,.831-.325,.823-.721l-.053-2.705c-.008-.389-.377-.7-.828-.698l-9.442,.051c-.447,.002-.81,.312-.818,.698l-.051,2.654c-.008,.396,.363,.721,.823,.721Z" style="fill: rgb(255, 255, 255); transform-origin: 376.697px 399.662px;" id="el9t73tdfaoo" class="animable"></path><path d="M329.123,401.724h10.179c.454,0,.823-.318,.823-.709v-2.476c0-.394-.372-.712-.828-.71l-10.179,.055c-.452,.002-.818,.319-.818,.71v2.42c0,.392,.368,.709,.823,.709Z" style="fill: rgb(255, 255, 255); transform-origin: 334.212px 399.776px;" id="el3u2uw69wjrp" class="animable"></path><path d="M342.594,401.724h11.21c.454,0,.823-.318,.823-.709v-2.555c0-.394-.372-.712-.828-.71l-11.21,.061c-.452,.002-.818,.319-.818,.71v2.494c0,.392,.368,.709,.823,.709Z" style="fill: rgb(255, 255, 255); transform-origin: 348.199px 399.737px;" id="elpv5whojrfui" class="animable"></path><path d="M412.806,398.626l.183,2.064c.052,.583,.616,1.034,1.294,1.034h9.245c.783,0,1.388-.593,1.287-1.263l-.318-2.113c-.084-.56-.64-.979-1.295-.975l-9.111,.05c-.753,.004-1.344,.558-1.286,1.205Z" style="fill: rgb(255, 255, 255); transform-origin: 418.814px 399.548px;" id="eltt0fcndw90f" class="animable"></path><path d="M385.23,401.937h9.736c.735,0,1.324-.526,1.297-1.159l-.081-1.959c-.025-.605-.603-1.083-1.305-1.079l-9.691,.053c-.722,.004-1.302,.515-1.29,1.138l.037,1.906c.012,.611,.589,1.1,1.298,1.1Z" style="fill: rgb(255, 255, 255); transform-origin: 390.08px 399.838px;" id="el6wq3u2hldfk" class="animable"></path><path d="M399.21,401.724h10.819c.756,0,1.352-.555,1.294-1.205l-.181-2.041c-.052-.586-.621-1.038-1.302-1.034l-10.72,.059c-.732,.004-1.315,.529-1.289,1.159l.082,1.982c.025,.602,.598,1.079,1.297,1.079Z" style="fill: rgb(255, 255, 255); transform-origin: 404.579px 399.584px;" id="eldekhbz912vi" class="animable"></path><path d="M289.775,401.724h6.838c.836,0,1.517-.578,1.531-1.298l.02-1.022c.014-.741-.681-1.347-1.541-1.343l-6.788,.037c-.805,.004-1.469,.546-1.518,1.239l-.071,.985c-.055,.76,.645,1.402,1.528,1.402Z" style="fill: rgb(255, 255, 255); transform-origin: 293.204px 399.892px;" id="elybm0g5utcs" class="animable"></path><path d="M276.845,401.724h8.213c.809,0,1.478-.542,1.528-1.239l.069-.959c.055-.763-.651-1.407-1.538-1.402l-8.175,.045c-.782,.004-1.435,.517-1.514,1.188l-.107,.914c-.091,.777,.617,1.452,1.523,1.452Z" style="fill: rgb(255, 255, 255); transform-origin: 280.986px 399.924px;" id="elopqw66yp95g" class="animable"></path><path d="M264.525,401.724h7.587c.786,0,1.445-.513,1.523-1.188l.104-.889c.091-.781-.623-1.457-1.533-1.452l-7.554,.041c-.76,.004-1.401,.488-1.507,1.137l-.137,.847c-.129,.794,.587,1.503,1.516,1.503Z" style="fill: rgb(255, 255, 255); transform-origin: 268.37px 399.959px;" id="eliwkz0047dcp" class="animable"></path><path d="M272.846,407.312l.317-2.717c.091-.778-.617-1.452-1.523-1.452h-7.772c-.764,0-1.411,.485-1.516,1.138l-.44,2.717c-.129,.794,.587,1.503,1.516,1.503h7.895c.786,0,1.445-.514,1.523-1.188Z" style="fill: rgb(255, 255, 255); transform-origin: 267.534px 405.822px;" id="elbmzwr90zaq" class="animable"></path><path d="M244.539,408.5h14.134c.764,0,1.411-.485,1.516-1.138l.44-2.717c.129-.794-.587-1.503-1.516-1.503h-13.953c-.731,0-1.361,.446-1.502,1.065l-.621,2.717c-.187,.816,.538,1.576,1.502,1.576Z" style="fill: rgb(255, 255, 255); transform-origin: 251.826px 405.821px;" id="elw6rcmo59o3i" class="animable"></path><path d="M300.602,401.724h10.615c.454,0,.823-.318,.823-.709v-2.323c0-.394-.372-.712-.828-.71l-10.571,.058c-.447,.002-.81,.312-.818,.698l-.044,2.265c-.008,.397,.363,.721,.823,.721Z" style="fill: rgb(255, 255, 255); transform-origin: 305.909px 399.853px;" id="elc6odsw0r2dj" class="animable"></path><path d="M413.314,404.348l.277,3.119c.052,.583,.616,1.034,1.294,1.034h9.662c.783,0,1.388-.594,1.287-1.263l-.469-3.119c-.084-.558-.635-.975-1.287-.975h-9.47c-.756,0-1.352,.555-1.294,1.205Z" style="fill: rgb(255, 255, 255); transform-origin: 419.578px 405.822px;" id="el00m8uc0cd03j" class="animable"></path></g></g><g id="elp7b8mftmj1"><path d="M424.029,393.833h16.126c.911,0,1.62-.493,1.518-1.057l-.223-1.225c-.088-.483-.746-.846-1.527-.843l-16.145,.063c-.918,.004-1.623,.506-1.505,1.072l.242,1.161c.099,.473,.747,.828,1.515,.828Z" style="fill: rgb(255, 255, 255); opacity: 0.2; transform-origin: 431.971px 392.27px;" class="animable"></path></g><g id="el78gzu89ykmv"><path d="M262.349,393.038l.129-.574c.125-.558-.574-1.054-1.48-1.051l-13.229,.052c-.706,.003-1.31,.314-1.447,.745l-.166,.522c-.181,.57,.521,1.102,1.456,1.102h13.265c.74,0,1.368-.339,1.47-.796Z" style="fill: rgb(255, 255, 255); opacity: 0.2; transform-origin: 254.31px 392.623px;" class="animable"></path></g><g id="elt5dys5brr1n"><path d="M313.948,393.833h10.978c.441,0,.798-.222,.798-.496v-1.68c0-.275-.36-.498-.803-.496l-10.978,.043c-.439,.002-.793,.223-.793,.496v1.637c0,.274,.357,.496,.798,.496Z" style="fill: rgb(255, 255, 255); opacity: 0.2; transform-origin: 319.437px 392.497px;" class="animable"></path></g><g id="elmacqi041hm"><path d="M355.237,393.833h11.186c.435,0,.791-.217,.798-.488l.049-1.843c.007-.279-.355-.506-.803-.504l-11.235,.044c-.439,.002-.793,.223-.793,.496v1.799c0,.274,.357,.496,.798,.496Z" style="fill: rgb(255, 255, 255); opacity: 0.2; transform-origin: 360.855px 392.416px;" class="animable"></path></g><g id="elsixj0leptq"><path d="M369.615,393.833h9.254c.446,0,.805-.227,.798-.504l-.051-1.892c-.007-.272-.365-.49-.803-.488l-9.154,.036c-.433,.002-.786,.218-.793,.488l-.049,1.856c-.007,.277,.352,.504,.798,.504Z" style="fill: rgb(255, 255, 255); opacity: 0.2; transform-origin: 374.242px 392.391px;" class="animable"></path></g><g id="eloq0v5qbh4wa"><path d="M328.117,393.833h9.869c.441,0,.798-.222,.798-.496v-1.731c0-.275-.36-.498-.803-.496l-9.869,.039c-.439,.002-.793,.223-.793,.496v1.692c0,.274,.357,.496,.798,.496Z" style="fill: rgb(255, 255, 255); opacity: 0.2; transform-origin: 333.051px 392.472px;" class="animable"></path></g><g id="ele6jwtjrypx"><path d="M341.177,393.833h10.868c.441,0,.798-.222,.798-.496v-1.786c0-.275-.36-.498-.803-.496l-10.868,.043c-.439,.002-.793,.223-.793,.496v1.744c0,.274,.357,.496,.798,.496Z" style="fill: rgb(255, 255, 255); opacity: 0.2; transform-origin: 346.611px 392.444px;" class="animable"></path></g><g id="elc0oc6fhr9j"><path d="M409.25,391.667l.178,1.443c.05,.408,.597,.723,1.255,.723h8.963c.759,0,1.346-.415,1.248-.883l-.308-1.478c-.082-.392-.62-.684-1.256-.682l-8.833,.035c-.73,.003-1.303,.39-1.247,.842Z" style="fill: rgb(255, 255, 255); opacity: 0.2; transform-origin: 415.075px 392.311px;" class="animable"></path></g><g id="el3zoc91mgsh6"><path d="M382.514,393.982h9.439c.713,0,1.283-.368,1.258-.811l-.079-1.37c-.025-.423-.585-.757-1.266-.755l-9.396,.037c-.7,.003-1.262,.36-1.25,.796l.036,1.333c.011,.427,.571,.77,1.258,.77Z" style="fill: rgb(255, 255, 255); opacity: 0.2; transform-origin: 387.216px 392.514px;" class="animable"></path></g><g id="elu28inpfd0qk"><path d="M396.068,393.833h10.49c.733,0,1.311-.388,1.255-.843l-.176-1.427c-.05-.41-.602-.725-1.263-.723l-10.394,.041c-.71,.003-1.275,.37-1.25,.811l.08,1.386c.024,.421,.58,.755,1.258,.755Z" style="fill: rgb(255, 255, 255); opacity: 0.2; transform-origin: 401.273px 392.337px;" class="animable"></path></g><g id="elhf8p72aggha"><path d="M289.968,393.833h6.63c.81,0,1.471-.404,1.484-.908l.019-.714c.014-.518-.66-.942-1.494-.939l-6.581,.026c-.781,.003-1.424,.382-1.472,.866l-.069,.689c-.053,.531,.626,.98,1.482,.98Z" style="fill: rgb(255, 255, 255); opacity: 0.2; transform-origin: 293.292px 392.553px;" class="animable"></path></g><g id="eltvtzvdujcfa"><path d="M277.431,393.833h7.963c.784,0,1.433-.379,1.482-.866l.067-.671c.053-.534-.631-.984-1.491-.98l-7.926,.031c-.759,.003-1.392,.361-1.468,.831l-.103,.639c-.088,.544,.598,1.016,1.477,1.016Z" style="fill: rgb(255, 255, 255); opacity: 0.2; transform-origin: 281.447px 392.574px;" class="animable"></path></g><g id="elvdslxv7jo9n"><path d="M265.487,393.833h7.356c.762,0,1.401-.359,1.477-.831l.101-.621c.088-.546-.604-1.019-1.486-1.016l-7.324,.029c-.737,.003-1.359,.342-1.461,.795l-.133,.593c-.125,.555,.569,1.051,1.47,1.051Z" style="fill: rgb(255, 255, 255); opacity: 0.2; transform-origin: 269.215px 392.599px;" class="animable"></path></g><g id="el1lkmygkryyz"><path d="M300.465,393.833h10.292c.441,0,.798-.222,.798-.496v-1.624c0-.275-.36-.498-.803-.496l-10.248,.04c-.433,.002-.785,.218-.793,.488l-.043,1.584c-.008,.277,.352,.505,.798,.505Z" style="fill: rgb(255, 255, 255); opacity: 0.2; transform-origin: 305.611px 392.526px;" class="animable"></path></g><g id="elsgzjocxdayi"><path d="M556.506,438.663c-4.87,1.652-14.438,2.502-25.755,2.231-13.845-.331-55.85-2.546-100.389-1.398-49.142,1.266-193.009,.692-199.828,0-3.706-.376-6.929-1.671-9.172-2.938-.2,.827-.395,1.635-.578,2.401-1.187,4.961,3.195,9.609,9.068,9.621,34.36,.069,135.969,.246,154.47-.024,22.338-.327,70.042-2.612,87.079-1.959,12.634,.484,54.832,1.327,75.8,1.731,6.009,.116,10.527-4.629,9.304-9.665Z" style="opacity: 0.3; transform-origin: 388.647px 442.629px;" class="animable"></path></g></g></g><g id="freepik--Mouse--inject-49" class="animable" style="transform-origin: 604.978px 414.707px;"><g id="el1r366eu03nv" class="animable" style="transform-origin: 604.978px 414.707px;"><path d="M579.808,404.274s-2.172-7.472,.815-9.877c2.987-2.405,20.004-2.487,28.569-.884,8.564,1.604,16.243,7.298,19.43,14.675,3.187,7.376,5.953,28.265-12.946,29.185-22.007,1.071-32.91-21.433-35.868-33.098Z" style="fill: rgb(38, 50, 56); transform-origin: 604.978px 414.92px;" id="elh0uortxdjvh" class="animable"></path><path d="M593.935,392.436s3.611,2.534,5.008,4.408c1.397,1.874,4.539,4.779,7.216,4.03,2.677-.75,1.008-4.386-4.346-8.219,0,0-4.336-1.307-7.878-.219Z" style="fill: rgb(144, 202, 249); transform-origin: 600.675px 396.499px;" id="elh6kke86ubck" class="animable"></path></g></g><g id="freepik--CPU--inject-49" class="animable" style="transform-origin: 136.686px 244.949px;"><g id="elrmqd6mwkp6" class="animable" style="transform-origin: 136.686px 244.949px;"><rect x="72.775" y="112.72" width="127.821" height="264.458" rx="7.862" ry="7.862" style="fill: rgb(38, 50, 56); transform-origin: 136.685px 244.949px;" id="el4fmt9mquzik" class="animable"></rect><g id="ele34efameomv"><path d="M186.79,351.917H85.81c-3.709,0-6.728-3.018-6.728-6.728V127.111c0-3.71,3.018-6.728,6.728-6.728h100.98c3.709,0,6.728,3.018,6.728,6.728v218.078c0,3.71-3.018,6.728-6.728,6.728ZM85.81,121.383c-3.158,0-5.728,2.57-5.728,5.728v218.078c0,3.158,2.569,5.728,5.728,5.728h100.98c3.158,0,5.728-2.569,5.728-5.728V127.111c0-3.158-2.569-5.728-5.728-5.728H85.81Z" style="opacity: 0.3; transform-origin: 136.3px 236.15px;" class="animable"></path></g><g id="el2pymvjaq0yv"><path d="M80.648,164.765h112.075c.965,0,.967-1.5,0-1.5H80.648c-.965,0-.967,1.5,0,1.5h0Z" style="opacity: 0.3; transform-origin: 136.685px 164.015px;" class="animable"></path></g><g id="el1tjtwwmd5k9"><path d="M80.648,205.836h112.075c.965,0,.967-1.5,0-1.5H80.648c-.965,0-.967,1.5,0,1.5h0Z" style="opacity: 0.3; transform-origin: 136.685px 205.086px;" class="animable"></path></g><g id="el9we4thvpfme"><circle cx="137.829" cy="308.34" r="7.413" style="fill: rgb(144, 202, 249); transform-origin: 137.829px 308.34px; transform: rotate(-42.145deg);" class="animable"></circle></g><g id="elkqrojjocke"><rect x="90.508" y="216.511" width="11.906" height="4.25" style="opacity: 0.3; transform-origin: 96.461px 218.636px;" class="animable"></rect></g><g id="elpo287dv928"><rect x="110.229" y="216.511" width="72.929" height="4.25" style="opacity: 0.3; transform-origin: 146.694px 218.636px;" class="animable"></rect></g><g id="elj496khsxqx"><rect x="90.508" y="223.829" width="11.906" height="4.25" style="opacity: 0.3; transform-origin: 96.461px 225.954px;" class="animable"></rect></g><path d="M159.083,228.079c0,1.486-1.205,2.691-2.691,2.691s-2.691-1.205-2.691-2.691,1.205-2.691,2.691-2.691,2.691,1.205,2.691,2.691Z" style="fill: rgb(144, 202, 249); transform-origin: 156.392px 228.079px;" id="elp0u19x22hq" class="animable"></path><g id="el6l5locresqw"><path d="M170.794,228.079c0,1.486-1.205,2.691-2.691,2.691s-2.69-1.205-2.69-2.691,1.205-2.691,2.69-2.691,2.691,1.205,2.691,2.691Z" style="fill: rgb(255, 255, 255); opacity: 0.1; transform-origin: 168.104px 228.079px;" class="animable"></path></g><g id="elzmigk8q6g6r"><path d="M182.623,228.079c0,1.486-1.205,2.691-2.691,2.691s-2.691-1.205-2.691-2.691,1.205-2.691,2.691-2.691,2.691,1.205,2.691,2.691Z" style="opacity: 0.3; transform-origin: 179.932px 228.079px;" class="animable"></path></g></g></g><g id="freepik--Monitor--inject-49" class="animable" style="transform-origin: 394.843px 243.266px;"><g id="elzm6b88beiu" class="animable" style="transform-origin: 394.843px 243.266px;"><rect x="226.473" y="109.675" width="336.739" height="228.988" rx="4.009" ry="4.009" style="fill: rgb(38, 50, 56); transform-origin: 394.842px 224.169px;" id="elq4glue1crpj" class="animable"></rect><path d="M353.421,332.865l-12.643,39.18c-.767,2.377,1.005,4.811,3.503,4.811h100.977c2.539,0,4.316-2.511,3.471-4.906l-13.795-39.085h-81.513Z" style="fill: rgb(38, 50, 56); transform-origin: 394.77px 354.86px;" id="elrbjodsq00ui" class="animable"></path><g id="elqneexr0rjv9"><rect x="234.539" y="116.663" width="320.607" height="187.129" style="opacity: 0.3; transform-origin: 394.842px 210.227px;" class="animable"></rect></g><rect x="240.469" y="121.461" width="308.746" height="182.331" style="fill: rgb(144, 202, 249); transform-origin: 394.842px 212.626px;" id="elo5n1qrir5rh" class="animable"></rect><g id="ele6n23v135ns"><polygon points="351.966 338.663 437.396 338.663 441.158 349.323 348.526 349.323 351.966 338.663" style="opacity: 0.3; transform-origin: 394.842px 343.993px;" class="animable"></polygon></g><g id="eldxonnt9t7oi"><path d="M234.539,201.251s155.814,54.173,167.125,30.956c11.311-23.217-73.223-44.648-27.979-66.079,45.243-21.431,181.461-39.29,181.461-39.29v51.196s-149.314-5.358-146.933,8.93c2.381,14.287,95.845,41.672,33.337,67.865-62.507,26.194-207.011,11.906-207.011,11.906v-65.484Z" style="fill: rgb(255, 255, 255); opacity: 0.1; transform-origin: 394.842px 198.731px;" class="animable"></path></g><rect x="354.02" y="226.178" width="81.645" height="8.725" rx="3.991" ry="3.991" style="fill: rgb(255, 255, 255); transform-origin: 394.842px 230.541px;" id="elq3fucs0s41a" class="animable"></rect><g id="elrcu5l0qi9hc" class="animable" style="transform-origin: 394.842px 195.083px;"><circle cx="394.842" cy="195.083" r="21.462" style="fill: rgb(255, 255, 255); transform-origin: 394.842px 195.083px;" id="elx0cdjsc3o4" class="animable"></circle><circle cx="394.842" cy="189.349" r="8.679" style="fill: rgb(144, 202, 249); transform-origin: 394.842px 189.349px;" id="elcq721pwcewu" class="animable"></circle><path d="M383.74,209.617c-2.599-2.155-2.096-6.273,.91-7.81,2.542-1.3,5.953-2.465,10.014-2.465,5.827,0,9.778,1.371,12.302,2.786,2.348,1.315,2.737,4.533,.76,6.359-2.756,2.546-7.261,5.635-12.884,5.618-4.578-.014-8.421-2.266-11.102-4.488Z" style="fill: rgb(144, 202, 249); transform-origin: 395.528px 206.724px;" id="elk2hgix903vk" class="animable"></path></g></g></g><defs>     <filter id="active" height="200%">         <feMorphology in="SourceAlpha" result="DILATED" operator="dilate" radius="2"></feMorphology>                <feFlood flood-color="#32DFEC" flood-opacity="1" result="PINK"></feFlood>        <feComposite in="PINK" in2="DILATED" operator="in" result="OUTLINE"></feComposite>        <feMerge>            <feMergeNode in="OUTLINE"></feMergeNode>            <feMergeNode in="SourceGraphic"></feMergeNode>        </feMerge>    </filter>    <filter id="hover" height="200%">        <feMorphology in="SourceAlpha" result="DILATED" operator="dilate" radius="2"></feMorphology>                <feFlood flood-color="#ff0000" flood-opacity="0.5" result="PINK"></feFlood>        <feComposite in="PINK" in2="DILATED" operator="in" result="OUTLINE"></feComposite>        <feMerge>            <feMergeNode in="OUTLINE"></feMergeNode>            <feMergeNode in="SourceGraphic"></feMergeNode>        </feMerge>            <feColorMatrix type="matrix" values="0   0   0   0   0                0   1   0   0   0                0   0   0   0   0                0   0   0   1   0 "></feColorMatrix>    </filter></defs></svg>